<svg xmlns="http://www.w3.org/2000/svg" width="102" height="40" viewBox="0 0 102 40">
  <g id="BTN_favoris" transform="translate(-151 -206)">
    <rect id="Rectangle_4"
        width="102" height="40" rx="13" transform="translate(151 206)" fill="#fff"/>
    <path id="Rectangle_4_-_Contour"
        d="M13,1A12,12,0,0,0,1,13V27A12,12,0,0,0,13,39H89a12,12,0,0,0,12-12V13A12,12,0,0,0,89,1H13m0-1H89a13,13,0,0,1,13,13V27A13,13,0,0,1,89,40H13A13,13,0,0,1,0,27V13A13,13,0,0,1,13,0Z" transform="translate(151 206)" fill="#707070"/>
    <text id="Favoris" transform="translate(172 234)" fill="#707070" font-size="20" font-family="SegoeUI, Segoe UI"><tspan x="0" y="0">Favoris</tspan></text>
  </g>
</svg>
