<svg xmlns="http://www.w3.org/2000/svg" width="35" height="34" viewBox="0 0 35 34">
  <g id="BTN_mail" transform="translate(-296 -9)">
    <ellipse id="Ellipse_35"
        cx="17.5" cy="17" rx="17.5" ry="17" transform="translate(296 9)" fill="#fff"/>
    <path id="Ellipse_35_-_Contour"
        d="M17.5,1A16.653,16.653,0,0,0,5.822,5.7a15.659,15.659,0,0,0,0,22.607,16.866,16.866,0,0,0,23.355,0,15.659,15.659,0,0,0,0-22.607A16.653,16.653,0,0,0,17.5,1m0-1A17.255,17.255,0,0,1,35,17,17.255,17.255,0,0,1,17.5,34,17.255,17.255,0,0,1,0,17,17.255,17.255,0,0,1,17.5,0Z" transform="translate(296 9)" fill="#707070"/>
    <path id="ic_phone_24px" d="M6.62,10.79a15.149,15.149,0,0,0,6.59,6.59l2.2-2.2a.994.994,0,0,1,1.02-.24,11.407,11.407,0,0,0,3.57.57,1,1,0,0,1,1,1V20a1,1,0,0,1-1,1A17,17,0,0,1,3,4,1,1,0,0,1,4,3H7.5a1,1,0,0,1,1,1,11.36,11.36,0,0,0,.57,3.57,1,1,0,0,1-.25,1.02Z" transform="translate(302 14)"/>
  </g>
</svg>
