<svg xmlns="http://www.w3.org/2000/svg" width="294" height="58" viewBox="0 0 294 58">
  <g id="BTN_connection" transform="translate(-44 -608)">
    <rect id="bordure_btn" width="294" height="58" rx="29" transform="translate(44 608)" fill="#fff"/>
    <path id="bordure_btn_-_Contour"
        d="M29,1A28.008,28.008,0,0,0,18.1,54.8,27.824,27.824,0,0,0,29,57H265A28.008,28.008,0,0,0,275.9,3.2,27.824,27.824,0,0,0,265,1H29m0-1H265a29,29,0,0,1,0,58H29A29,29,0,0,1,29,0Z" transform="translate(44 608)" fill="#707070"/>
    <text id="Connection" transform="translate(137 646)" fill="#707070" font-size="20" font-family="SegoeUI, Segoe UI"><tspan x="0" y="0">Connection</tspan></text>
    <path id="Connection_-_Contour"
        d="M83.857.734a5.139,5.139,0,0,1-3.9-1.558,5.7,5.7,0,0,1-1.46-4.059,5.91,5.91,0,0,1,1.518-4.284,5.452,5.452,0,0,1,4.079-1.567,4.983,4.983,0,0,1,3.861,1.54,5.962,5.962,0,0,1,1.385,4.155A5.878,5.878,0,0,1,87.85-.864,5.24,5.24,0,0,1,83.857.734Zm.234-10.469A4.434,4.434,0,0,0,80.73-8.47a4.954,4.954,0,0,0-1.235,3.587A4.671,4.671,0,0,0,80.681-1.51,4.125,4.125,0,0,0,83.857-.266a4.225,4.225,0,0,0,3.263-1.283,4.851,4.851,0,0,0,1.217-3.491,5.007,5.007,0,0,0-1.124-3.482A3.975,3.975,0,0,0,84.092-9.734ZM62.9.734A5.028,5.028,0,0,1,59.085-.814a5.548,5.548,0,0,1-1.45-3.952,6.05,6.05,0,0,1,1.553-4.313,5.456,5.456,0,0,1,4.143-1.656,5.778,5.778,0,0,1,2.543.538l.282.137v2.915L65.367-7.7a3.552,3.552,0,0,0-2.1-.691,2.718,2.718,0,0,0-2.142.932A3.657,3.657,0,0,0,60.275-4.9a3.509,3.509,0,0,0,.793,2.437,2.68,2.68,0,0,0,2.106.852,3.5,3.5,0,0,0,2.16-.768l.8-.6v2.81l-.242.146A5.718,5.718,0,0,1,62.9.734Zm.43-10.469a4.437,4.437,0,0,0-3.416,1.342,5.021,5.021,0,0,0-1.279,3.626A4.523,4.523,0,0,0,59.812-1.5,4.014,4.014,0,0,0,62.9-.266a4.884,4.884,0,0,0,2.234-.488v-.33a4.335,4.335,0,0,1-1.961.47,3.675,3.675,0,0,1-2.846-1.179A4.467,4.467,0,0,1,59.275-4.9a4.67,4.67,0,0,1,1.109-3.219,3.715,3.715,0,0,1,2.888-1.266,4.448,4.448,0,0,1,1.883.416v-.449A5,5,0,0,0,63.33-9.734ZM52.217.734a4.724,4.724,0,0,1-3.7-1.53,6.078,6.078,0,0,1-1.337-4.165A5.976,5.976,0,0,1,48.627-9.1a4.742,4.742,0,0,1,3.658-1.635A4.253,4.253,0,0,1,55.7-9.288,5.8,5.8,0,0,1,56.9-5.439V-4.1H49.871A2.967,2.967,0,0,0,50.6-2.365a2.6,2.6,0,0,0,2,.752,4.389,4.389,0,0,0,2.8-1.006l.809-.636V-.468L56-.318A6.313,6.313,0,0,1,52.217.734Zm.068-10.469a3.732,3.732,0,0,0-2.915,1.3,4.944,4.944,0,0,0-1.195,3.469,5.125,5.125,0,0,0,1.085,3.5A3.719,3.719,0,0,0,52.217-.266,5.569,5.569,0,0,0,55.2-.988v-.3a5.288,5.288,0,0,1-2.605.68,3.59,3.59,0,0,1-2.726-1.065,4.235,4.235,0,0,1-1.035-2.91L48.824-5.1H55.9v-.34a4.84,4.84,0,0,0-.956-3.2A3.257,3.257,0,0,0,52.285-9.734ZM18.184.734a5.139,5.139,0,0,1-3.9-1.558,5.7,5.7,0,0,1-1.46-4.059,5.91,5.91,0,0,1,1.518-4.284,5.452,5.452,0,0,1,4.079-1.567,4.983,4.983,0,0,1,3.861,1.54,5.962,5.962,0,0,1,1.385,4.155A5.878,5.878,0,0,1,22.176-.864,5.24,5.24,0,0,1,18.184.734Zm.234-10.469A4.434,4.434,0,0,0,15.056-8.47,4.954,4.954,0,0,0,13.82-4.883,4.671,4.671,0,0,0,15.007-1.51,4.125,4.125,0,0,0,18.184-.266a4.225,4.225,0,0,0,3.263-1.283,4.851,4.851,0,0,0,1.217-3.491A5.007,5.007,0,0,0,21.54-8.521,3.975,3.975,0,0,0,18.418-9.734ZM7.5.734A6.744,6.744,0,0,1,2.349-1.348,7.612,7.612,0,0,1,.418-6.738a7.955,7.955,0,0,1,2.164-5.779,7.373,7.373,0,0,1,5.485-2.221,8.745,8.745,0,0,1,3.5.619l.3.131v2.926l-.744-.415a6.23,6.23,0,0,0-3.077-.776A4.577,4.577,0,0,0,4.5-10.8,5.616,5.616,0,0,0,3.137-6.836,5.321,5.321,0,0,0,4.406-3.1,4.253,4.253,0,0,0,7.715-1.74a6.438,6.438,0,0,0,3.393-.865l.76-.462V-.285L11.6-.144A8.739,8.739,0,0,1,7.5.734Zm.566-14.473A6.326,6.326,0,0,0,3.3-11.819a6.991,6.991,0,0,0-1.879,5.08A6.648,6.648,0,0,0,3.08-2.031,5.709,5.709,0,0,0,7.5-.266,8.086,8.086,0,0,0,10.867-.9v-.459A7.791,7.791,0,0,1,7.715-.74,5.27,5.27,0,0,1,3.671-2.42,6.282,6.282,0,0,1,2.137-6.836,6.578,6.578,0,0,1,3.77-11.483a5.6,5.6,0,0,1,4.277-1.771,7.336,7.336,0,0,1,2.82.543v-.614A8.294,8.294,0,0,0,8.066-13.738ZM71.2.715a3,3,0,0,1-2.342-.9,3.688,3.688,0,0,1-.784-2.531V-8.133H66.355V-10.5h1.719v-2.305l2.6-.841V-10.5H73.2v2.367h-2.52V-3a1.842,1.842,0,0,0,.233,1.124.917.917,0,0,0,.742.241,1.187,1.187,0,0,0,.744-.231l.8-.605V.2L72.937.34A3.585,3.585,0,0,1,71.2.715ZM67.355-9.133h1.719v6.418c0,1.68.656,2.43,2.127,2.43A3.122,3.122,0,0,0,72.2-.423v-.27a2.424,2.424,0,0,1-.545.06,1.837,1.837,0,0,1-1.524-.618A2.762,2.762,0,0,1,69.676-3V-9.133H72.2V-9.5h-2.52v-2.772l-.6.194V-9.5H67.355ZM100.2.5H97.6V-5.7c0-2.405-1.041-2.684-1.824-2.684a2.025,2.025,0,0,0-1.61.732A2.841,2.841,0,0,0,93.5-5.7V.5H90.9v-11h2.6v.8a4.05,4.05,0,0,1,2.82-1.033,3.549,3.549,0,0,1,2.9,1.242,5.215,5.215,0,0,1,.983,3.379Zm-1.6-1h.6V-6.113a4.271,4.271,0,0,0-.756-2.744,2.565,2.565,0,0,0-2.123-.877,3.072,3.072,0,0,0-2.144.771,3.046,3.046,0,0,1,1.6-.423,2.5,2.5,0,0,1,2.147,1A4.466,4.466,0,0,1,98.6-5.7Zm-6.7,0h.6V-5.7A4,4,0,0,1,93.06-7.84H92.5V-9.5h-.6ZM76.936.5h-2.6v-11h2.6Zm-1.6-1h.6v-9h-.6ZM45.842.5h-2.6V-5.7c0-2.405-1.041-2.684-1.824-2.684a2.025,2.025,0,0,0-1.61.732A2.841,2.841,0,0,0,39.143-5.7V.5h-2.6v-11h2.6v.8a4.05,4.05,0,0,1,2.82-1.033,3.549,3.549,0,0,1,2.9,1.242,5.215,5.215,0,0,1,.983,3.379Zm-1.6-1h.6V-6.113a4.271,4.271,0,0,0-.756-2.744,2.565,2.565,0,0,0-2.123-.877,3.072,3.072,0,0,0-2.144.771,3.047,3.047,0,0,1,1.6-.423,2.5,2.5,0,0,1,2.147,1A4.465,4.465,0,0,1,44.24-5.7Zm-6.7,0h.6V-5.7A4,4,0,0,1,38.7-7.84h-.562V-9.5h-.6ZM34.523.5h-2.6V-5.7c0-2.405-1.041-2.684-1.824-2.684a2.025,2.025,0,0,0-1.61.732A2.841,2.841,0,0,0,27.824-5.7V.5h-2.6v-11h2.6v.8a4.05,4.05,0,0,1,2.82-1.033,3.549,3.549,0,0,1,2.9,1.242,5.215,5.215,0,0,1,.983,3.379Zm-1.6-1h.6V-6.113a4.271,4.271,0,0,0-.756-2.744,2.565,2.565,0,0,0-2.123-.877,3.072,3.072,0,0,0-2.144.771,3.047,3.047,0,0,1,1.6-.423,2.5,2.5,0,0,1,2.147,1A4.465,4.465,0,0,1,32.922-5.7Zm-6.7,0h.6V-5.7a4,4,0,0,1,.562-2.137h-.562V-9.5h-.6ZM83.975-.613a3.58,3.58,0,0,1-2.806-1.194,4.576,4.576,0,0,1-1.034-3.134,4.81,4.81,0,0,1,1.019-3.221,3.538,3.538,0,0,1,2.821-1.225,3.4,3.4,0,0,1,2.774,1.2A4.935,4.935,0,0,1,87.7-4.98a4.86,4.86,0,0,1-.95,3.181A3.417,3.417,0,0,1,83.975-.613Zm0-7.773a2.548,2.548,0,0,0-2.062.875,3.854,3.854,0,0,0-.778,2.57,3.618,3.618,0,0,0,.783,2.471,2.587,2.587,0,0,0,2.057.857,2.434,2.434,0,0,0,2-.825A3.912,3.912,0,0,0,86.7-4.98a3.988,3.988,0,0,0-.721-2.573A2.421,2.421,0,0,0,83.975-8.387ZM18.3-.613a3.58,3.58,0,0,1-2.806-1.194,4.576,4.576,0,0,1-1.034-3.134A4.81,4.81,0,0,1,15.48-8.162,3.538,3.538,0,0,1,18.3-9.387a3.4,3.4,0,0,1,2.774,1.2,4.935,4.935,0,0,1,.949,3.208,4.86,4.86,0,0,1-.95,3.181A3.417,3.417,0,0,1,18.3-.613Zm0-7.773a2.548,2.548,0,0,0-2.062.875,3.854,3.854,0,0,0-.778,2.57,3.618,3.618,0,0,0,.783,2.471,2.587,2.587,0,0,0,2.057.857,2.434,2.434,0,0,0,2-.825,3.912,3.912,0,0,0,.72-2.542A3.988,3.988,0,0,0,20.3-7.554,2.421,2.421,0,0,0,18.3-8.387Zm36.959,2.93H48.78l.081-.57a4.183,4.183,0,0,1,1.114-2.4,3.082,3.082,0,0,1,2.282-.961,2.767,2.767,0,0,1,2.211.947,3.752,3.752,0,0,1,.789,2.479Zm-5.289-1h4.256a2.451,2.451,0,0,0-.519-1.333,1.789,1.789,0,0,0-1.451-.6,2.088,2.088,0,0,0-1.566.66A2.932,2.932,0,0,0,49.97-6.457Zm25.684-5.582a1.523,1.523,0,0,1-1.08-.434,1.5,1.5,0,0,1-.455-1.1,1.512,1.512,0,0,1,.452-1.1,1.514,1.514,0,0,1,1.083-.441,1.543,1.543,0,0,1,1.095.439,1.5,1.5,0,0,1,.46,1.106,1.5,1.5,0,0,1-.457,1.089A1.534,1.534,0,0,1,75.654-12.039Zm0-2.08a.507.507,0,0,0-.382.154.507.507,0,0,0-.153.391.492.492,0,0,0,.15.383.515.515,0,0,0,.385.152.525.525,0,0,0,.4-.159.492.492,0,0,0,.158-.376.5.5,0,0,0-.155-.388A.534.534,0,0,0,75.654-14.119Z" transform="translate(137 646)" fill="#707070"/>
  </g>
</svg>
