<svg xmlns="http://www.w3.org/2000/svg" width="60" height="58" viewBox="0 0 60 58">
  <g id="BTN_add" transform="translate(-223 -731)">
    <ellipse id="Ellipse_34"
        cx="30" cy="29" rx="30" ry="29" transform="translate(223 731)" fill="#fff"/>
    <path id="Ellipse_34_-_Contour"
        d="M30,1A29.707,29.707,0,0,0,18.7,3.2,28.982,28.982,0,0,0,9.482,9.213a27.875,27.875,0,0,0-6.208,8.9,27.2,27.2,0,0,0,0,21.775,27.875,27.875,0,0,0,6.208,8.9A28.982,28.982,0,0,0,18.7,54.8a30.057,30.057,0,0,0,22.6,0,28.982,28.982,0,0,0,9.219-6.008,27.875,27.875,0,0,0,6.208-8.9,27.2,27.2,0,0,0,0-21.775,27.875,27.875,0,0,0-6.208-8.9A28.982,28.982,0,0,0,41.3,3.2,29.707,29.707,0,0,0,30,1m0-1C46.569,0,60,12.984,60,29S46.569,58,30,58,0,45.016,0,29,13.431,0,30,0Z" transform="translate(223 731)" fill="#707070"/>
    <path id="ic_add_24px" d="M29,18.113H18.714v9.835H15.286V18.113H5V14.835H15.286V5h3.429v9.835H29Z" transform="translate(236 743.526)"/>
  </g>
</svg>
